<?xml version="1.0" encoding="iso-8859-1"?>
<!-- Generator: Adobe Illustrator 16.0.0, SVG Export Plug-In . SVG Version: 6.00 Build 0)  -->
<!DOCTYPE svg PUBLIC "-//W3C//DTD SVG 1.1//EN" "http://www.w3.org/Graphics/SVG/1.1/DTD/svg11.dtd">
<svg version="1.1" id="Capa_1" xmlns="http://www.w3.org/2000/svg" xmlns:xlink="http://www.w3.org/1999/xlink" x="0px" y="0px"
	 width="538.561px" height="538.561px" viewBox="0 0 538.561 538.561" style="enable-background:new 0 0 538.561 538.561;"
	 xml:space="preserve">
<g>
	<g>
		<path d="M83.232,315.792H62.424c-3.672,0-6.12,2.448-6.12,6.12v29.376c0,3.672,2.448,6.12,6.12,6.12h20.808
			c3.672,0,6.12-2.448,6.12-6.12v-29.376C89.352,318.24,86.904,315.792,83.232,315.792z"/>
		<path d="M83.232,372.097H62.424c-3.672,0-6.12,2.447-6.12,6.119v29.377c0,3.672,2.448,6.119,6.12,6.119h20.808
			c3.672,0,6.12-2.447,6.12-6.119v-29.377C89.352,374.544,86.904,372.097,83.232,372.097z"/>
		<path d="M126.072,315.792h-20.808c-3.672,0-6.12,2.448-6.12,6.12v29.376c0,3.672,2.448,6.12,6.12,6.12h20.808
			c3.672,0,6.12-2.448,6.12-6.12v-29.376C132.192,318.24,129.744,315.792,126.072,315.792z"/>
		<path d="M126.072,372.097h-20.808c-3.672,0-6.12,2.447-6.12,6.119v29.377c0,3.672,2.448,6.119,6.12,6.119h20.808
			c3.672,0,6.12-2.447,6.12-6.119v-29.377C132.192,374.544,129.744,372.097,126.072,372.097z"/>
		<path d="M412.488,356.185h20.807c3.672,0,6.121-2.448,6.121-6.12v-29.376c0-3.672-2.449-6.12-6.121-6.12h-20.807
			c-3.672,0-6.121,2.448-6.121,6.12v29.376C406.367,353.736,408.816,356.185,412.488,356.185z"/>
		<path d="M412.488,412.488h20.807c3.672,0,6.121-2.448,6.121-6.12v-29.376c0-3.672-2.449-6.12-6.121-6.12h-20.807
			c-3.672,0-6.121,2.448-6.121,6.12v29.376C406.367,410.04,408.816,412.488,412.488,412.488z"/>
		<path d="M455.328,356.185h20.809c3.672,0,6.119-2.448,6.119-6.12v-29.376c0-3.672-2.447-6.12-6.119-6.12h-20.809
			c-3.672,0-6.121,2.448-6.121,6.12v29.376C449.207,353.736,451.656,356.185,455.328,356.185z"/>
		<path d="M455.328,412.488h20.809c3.672,0,6.119-2.448,6.119-6.12v-29.376c0-3.672-2.447-6.12-6.119-6.12h-20.809
			c-3.672,0-6.121,2.448-6.121,6.12v29.376C449.207,410.04,451.656,412.488,455.328,412.488z"/>
		<path d="M520.199,203.184H306l-18.359-15.912V165.24h66.096c9.791,0,18.359-8.568,18.359-18.36v-40.392
			c0-9.792-8.568-18.36-18.359-18.36h-66.096c-2.449-8.568-8.568-14.688-18.361-14.688c-9.792,0-18.36,8.568-18.36,18.36v95.472
			l-18.36,15.912H18.36c-9.792,0-18.36,8.568-18.36,18.36v57.528l0,0v167.688c0,9.791,8.568,18.359,18.36,18.359h153l0,0h67.32
			h61.199h67.32l0,0h153c9.793,0,18.361-8.568,18.361-18.359V279.072l0,0v-57.528C538.561,211.752,529.992,203.184,520.199,203.184z
			 M36.72,297.433H153V428.4H36.72V297.433z M299.879,309.672H238.68c-9.792,0-18.36,8.568-18.36,18.36v101.592h-30.6V287.641
			l79.56-68.544l79.56,68.544v141.983h-30.6V328.032C318.24,317.017,309.672,309.672,299.879,309.672z M501.84,429.624H385.561
			V297.433H501.84V429.624z"/>
	</g>
</g>
<g>
</g>
<g>
</g>
<g>
</g>
<g>
</g>
<g>
</g>
<g>
</g>
<g>
</g>
<g>
</g>
<g>
</g>
<g>
</g>
<g>
</g>
<g>
</g>
<g>
</g>
<g>
</g>
<g>
</g>
</svg>
